<?xml version="1.0" encoding="UTF-8" standalone="no"?>
<!-- Generator: Adobe Illustrator 19.0.0, SVG Export Plug-In . SVG Version: 6.00 Build 0)  -->

<svg
   xmlns:dc="http://purl.org/dc/elements/1.1/"
   xmlns:cc="http://creativecommons.org/ns#"
   xmlns:rdf="http://www.w3.org/1999/02/22-rdf-syntax-ns#"
   xmlns:svg="http://www.w3.org/2000/svg"
   xmlns="http://www.w3.org/2000/svg"
   xmlns:sodipodi="http://sodipodi.sourceforge.net/DTD/sodipodi-0.dtd"
   xmlns:inkscape="http://www.inkscape.org/namespaces/inkscape"
   version="1.1"
   id="Layer_1"
   x="0px"
   y="0px"
   viewBox="0 0 411.003 412.003"
   xml:space="preserve"
   sodipodi:docname="paper-plane.svg"
   width="411.00299"
   height="412.00299"
   inkscape:version="0.92.2 (unknown)"><metadata
     id="metadata67"><rdf:RDF><cc:Work
         rdf:about=""><dc:format>image/svg+xml</dc:format><dc:type
           rdf:resource="http://purl.org/dc/dcmitype/StillImage" /><dc:title /></cc:Work></rdf:RDF></metadata><defs
     id="defs65" /><sodipodi:namedview
     pagecolor="#ffffff"
     bordercolor="#666666"
     borderopacity="1"
     objecttolerance="10"
     gridtolerance="10"
     guidetolerance="10"
     inkscape:pageopacity="0"
     inkscape:pageshadow="2"
     inkscape:window-width="1366"
     inkscape:window-height="692"
     id="namedview63"
     showgrid="false"
     inkscape:zoom="0.92186962"
     inkscape:cx="-39.764549"
     inkscape:cy="116.33695"
     inkscape:window-x="0"
     inkscape:window-y="24"
     inkscape:window-maximized="1"
     inkscape:current-layer="Layer_1" /><path
     inkscape:connector-curvature="0"
     id="path6"
     d="m 217.523,245.146 c -0.013,0 -0.028,0 -0.046,0 -0.655,-0.028 -1.17,-0.576 -1.142,-1.234 0.067,-1.764 0.046,-3.574 -0.064,-5.376 -0.041,-0.653 0.458,-1.221 1.111,-1.254 0.643,-0.1 1.224,0.456 1.262,1.108 0.115,1.876 0.136,3.766 0.067,5.612 -0.026,0.644 -0.553,1.144 -1.188,1.144 z"
     style="fill:#ffffff" /><path
     inkscape:connector-curvature="0"
     id="path8"
     d="m 119.908,354.903 c -0.343,0 -0.681,-0.156 -0.919,-0.435 -0.415,-0.504 -0.34,-1.257 0.169,-1.672 2.788,-2.289 5.571,-4.646 8.33,-7.066 0.484,-0.443 1.242,-0.384 1.674,0.105 0.43,0.492 0.381,1.244 -0.108,1.679 -2.78,2.437 -5.583,4.818 -8.389,7.114 -0.225,0.193 -0.491,0.275 -0.757,0.275 z m 16.484,-14.467 c -0.317,0 -0.632,-0.125 -0.87,-0.379 -0.445,-0.479 -0.422,-1.226 0.056,-1.677 2.662,-2.493 5.297,-5.059 7.828,-7.613 0.461,-0.471 1.211,-0.471 1.682,-0.015 0.463,0.466 0.471,1.216 0.005,1.685 -2.55,2.578 -5.204,5.171 -7.887,7.685 -0.233,0.21 -0.528,0.314 -0.814,0.314 z m 15.408,-15.59 c -0.287,0 -0.576,-0.1 -0.801,-0.31 -0.484,-0.443 -0.52,-1.201 -0.077,-1.677 2.486,-2.724 4.895,-5.494 7.16,-8.225 0.422,-0.504 1.17,-0.584 1.674,-0.161 0.504,0.423 0.576,1.172 0.156,1.672 -2.291,2.767 -4.728,5.571 -7.235,8.315 -0.234,0.258 -0.554,0.386 -0.877,0.386 z m 13.96,-16.893 c -0.243,0 -0.492,-0.077 -0.707,-0.238 -0.527,-0.387 -0.64,-1.124 -0.248,-1.656 2.237,-3.036 4.308,-6.054 6.167,-8.97 0.351,-0.548 1.088,-0.714 1.641,-0.366 0.556,0.353 0.717,1.091 0.366,1.646 -1.882,2.962 -3.988,6.019 -6.257,9.101 -0.238,0.309 -0.593,0.483 -0.962,0.483 z m 12.221,-18.996 -0.607,-0.008 c -0.655,-0.028 -1.167,-0.576 -1.142,-1.234 0.018,-0.463 0.294,-0.85 0.689,-1.032 1.523,-3.005 2.844,-5.985 3.922,-8.85 0.23,-0.617 0.909,-0.927 1.533,-0.694 0.612,0.233 0.919,0.911 0.689,1.533 -0.963,2.563 -2.109,5.194 -3.42,7.872 2.801,-0.141 5.568,-0.617 8.233,-1.426 0.637,-0.189 1.288,0.166 1.487,0.786 0.189,0.632 -0.164,1.293 -0.794,1.49 -3.416,1.036 -6.983,1.563 -10.59,1.563 z m -11.351,-1.743 c -0.108,0 -0.22,-0.013 -0.33,-0.041 -3.622,-1.047 -7.104,-2.481 -10.355,-4.25 -0.576,-0.31 -0.791,-1.024 -0.479,-1.608 0.317,-0.579 1.037,-0.796 1.61,-0.479 3.1,1.685 6.431,3.046 9.887,4.052 0.625,0.182 0.991,0.842 0.806,1.467 -0.145,0.529 -0.621,0.859 -1.139,0.859 z m 31.432,-4.5 c -0.379,0 -0.75,-0.182 -0.983,-0.527 -0.366,-0.54 -0.225,-1.277 0.317,-1.651 2.872,-1.946 5.519,-4.339 7.869,-7.114 0.425,-0.504 1.175,-0.563 1.674,-0.133 0.502,0.42 0.563,1.172 0.141,1.669 -2.493,2.936 -5.302,5.481 -8.351,7.542 -0.204,0.144 -0.437,0.214 -0.667,0.214 z M 147.551,276.8 c -0.282,0 -0.563,-0.097 -0.786,-0.294 -2.811,-2.486 -5.332,-5.294 -7.488,-8.343 -0.379,-0.535 -0.253,-1.277 0.282,-1.656 0.535,-0.379 1.28,-0.253 1.656,0.287 2.051,2.895 4.449,5.571 7.122,7.931 0.492,0.435 0.54,1.188 0.105,1.669 -0.238,0.273 -0.561,0.406 -0.891,0.406 z m 37.463,-7.875 c -0.077,0 -0.154,-0.008 -0.23,-0.028 -0.645,-0.128 -1.062,-0.753 -0.934,-1.398 0.64,-3.231 0.965,-6.397 0.965,-9.398 0,-0.415 -0.003,-0.814 -0.018,-1.224 -0.02,-0.66 0.499,-1.208 1.152,-1.226 0.765,0.028 1.208,0.497 1.224,1.157 0.013,0.43 0.02,0.858 0.02,1.293 0,3.151 -0.34,6.474 -1.011,9.861 -0.116,0.572 -0.615,0.963 -1.168,0.963 z m 27.172,-2.682 c -0.182,0 -0.361,-0.044 -0.532,-0.128 -0.584,-0.294 -0.822,-1.004 -0.527,-1.592 1.577,-3.146 2.824,-6.518 3.702,-10.015 0.161,-0.632 0.814,-1.024 1.441,-0.865 0.64,0.161 1.024,0.806 0.863,1.446 -0.919,3.661 -2.227,7.194 -3.884,10.501 -0.211,0.417 -0.628,0.653 -1.063,0.653 z m -77.154,-7.191 c -0.474,0 -0.924,-0.287 -1.106,-0.758 -1.411,-3.574 -2.34,-7.247 -2.739,-10.9 -0.074,-0.653 0.399,-1.242 1.05,-1.313 0.622,-0.064 1.239,0.392 1.313,1.052 0.379,3.443 1.249,6.902 2.588,10.291 0.238,0.617 -0.059,1.298 -0.671,1.546 -0.143,0.053 -0.291,0.082 -0.435,0.082 z m 49.503,-11.864 c -0.532,0 -1.024,-0.371 -1.152,-0.911 -0.845,-3.561 -2.051,-6.938 -3.592,-10.043 -0.292,-0.596 -0.054,-1.3 0.538,-1.595 0.584,-0.294 1.298,-0.054 1.59,0.535 1.623,3.264 2.893,6.812 3.776,10.547 0.156,0.64 -0.243,1.28 -0.881,1.434 -0.092,0.021 -0.187,0.033 -0.279,0.033 z m -51.676,-9.64 c -0.084,0 -0.169,-0.005 -0.253,-0.028 -0.645,-0.141 -1.05,-0.765 -0.914,-1.413 0.837,-3.876 2.353,-7.38 4.513,-10.435 0.379,-0.527 1.121,-0.653 1.656,-0.274 0.538,0.379 0.663,1.119 0.284,1.656 -1.974,2.775 -3.364,5.993 -4.129,9.559 -0.118,0.556 -0.614,0.935 -1.157,0.935 z m 41.899,-9.726 c -0.323,0 -0.645,-0.136 -0.886,-0.394 -2.465,-2.752 -5.222,-4.964 -8.184,-6.587 -0.576,-0.315 -0.786,-1.039 -0.474,-1.615 0.315,-0.563 1.039,-0.788 1.615,-0.471 3.2,1.748 6.167,4.129 8.814,7.086 0.443,0.484 0.399,1.236 -0.092,1.679 -0.224,0.195 -0.503,0.302 -0.793,0.302 z m -29.488,-7.516 c -0.425,0 -0.837,-0.233 -1.047,-0.632 -0.31,-0.579 -0.092,-1.301 0.484,-1.615 3.146,-1.679 6.538,-2.529 10.092,-2.529 0.33,-0.036 0.724,0.008 1.096,0.028 0.653,0.038 1.16,0.596 1.124,1.252 -0.036,0.66 -0.576,1.254 -1.249,1.121 -0.323,-0.015 -0.645,0.015 -0.97,-0.02 -3.156,0 -6.172,0.758 -8.97,2.248 -0.181,0.098 -0.371,0.147 -0.56,0.147 z"
     style="fill:#b8d1e6;stroke:none;stroke-opacity:1;fill-opacity:1" /><path
     inkscape:connector-curvature="0"
     id="path10"
     d="m 108.564,363.684 c -0.366,0 -0.722,-0.169 -0.955,-0.479 -0.392,-0.535 -0.279,-1.272 0.246,-1.664 1.446,-1.075 2.9,-2.179 4.357,-3.295 0.525,-0.392 1.267,-0.3 1.669,0.212 0.399,0.525 0.302,1.27 -0.218,1.669 -1.467,1.132 -2.931,2.24 -4.388,3.315 -0.216,0.165 -0.465,0.242 -0.711,0.242 z"
     style="fill:#ffffff" /><polygon
     style="fill:#b8d1e6"
     points="183.327,274.198 216.617,346.932 384,147.521 "
     id="polygon14"
     transform="translate(0,-100)" /><polygon
     style="fill:#8bc34a;fill-opacity:1"
     points="216.617,346.932 265.582,288.595 242.03,237.139 183.327,274.198 "
     id="polygon16"
     transform="translate(0,-100)" /><g
     id="g22"
     transform="translate(0,-100)"><polygon
       style="fill:#f2f9ff"
       points="208.133,281.248 298.916,307.073 384,147.521 "
       id="polygon18" /><polygon
       style="fill:#f2f9ff"
       points="128,258.444 183.327,274.198 384,147.521 "
       id="polygon20" /></g><polygon
     style="fill:#7fb83d;fill-opacity:1"
     points="216.617,346.932 208.133,281.248 259.507,295.843 "
     id="polygon24"
     transform="translate(0,-100)" /><g
     id="g30"
     transform="translate(0,-100)"><polygon
       style="fill:#8bc34a;fill-opacity:1"
       points="128,258.444 242.03,237.139 183.327,274.198 "
       id="polygon26" /><polygon
       style="fill:#8bc34a;fill-opacity:1"
       points="259.507,242.195 208.133,281.248 298.916,307.073 "
       id="polygon28" /></g><g
     id="g32"
     transform="translate(0,-100)" /><g
     id="g34"
     transform="translate(0,-100)" /><g
     id="g36"
     transform="translate(0,-100)" /><g
     id="g38"
     transform="translate(0,-100)" /><g
     id="g40"
     transform="translate(0,-100)" /><g
     id="g42"
     transform="translate(0,-100)" /><g
     id="g44"
     transform="translate(0,-100)" /><g
     id="g46"
     transform="translate(0,-100)" /><g
     id="g48"
     transform="translate(0,-100)" /><g
     id="g50"
     transform="translate(0,-100)" /><g
     id="g52"
     transform="translate(0,-100)" /><g
     id="g54"
     transform="translate(0,-100)" /><g
     id="g56"
     transform="translate(0,-100)" /><g
     id="g58"
     transform="translate(0,-100)" /><g
     id="g60"
     transform="translate(0,-100)" /></svg>