<?xml version="1.0" encoding="UTF-8" standalone="no"?>
<!-- Generator: Adobe Illustrator 19.0.0, SVG Export Plug-In . SVG Version: 6.00 Build 0)  -->

<svg
   xmlns:dc="http://purl.org/dc/elements/1.1/"
   xmlns:cc="http://creativecommons.org/ns#"
   xmlns:rdf="http://www.w3.org/1999/02/22-rdf-syntax-ns#"
   xmlns:svg="http://www.w3.org/2000/svg"
   xmlns="http://www.w3.org/2000/svg"
   xmlns:sodipodi="http://sodipodi.sourceforge.net/DTD/sodipodi-0.dtd"
   xmlns:inkscape="http://www.inkscape.org/namespaces/inkscape"
   version="1.1"
   id="Layer_1"
   x="0px"
   y="0px"
   viewBox="0 0 511.998 511.998"
   style="enable-background:new 0 0 511.998 511.998;"
   xml:space="preserve"
   sodipodi:docname="send.svg"
   inkscape:version="0.92.2 (unknown)"><metadata
     id="metadata57"><rdf:RDF><cc:Work
         rdf:about=""><dc:format>image/svg+xml</dc:format><dc:type
           rdf:resource="http://purl.org/dc/dcmitype/StillImage" /></cc:Work></rdf:RDF></metadata><defs
     id="defs55" /><sodipodi:namedview
     pagecolor="#ffffff"
     bordercolor="#666666"
     borderopacity="1"
     objecttolerance="10"
     gridtolerance="10"
     guidetolerance="10"
     inkscape:pageopacity="0"
     inkscape:pageshadow="2"
     inkscape:window-width="1366"
     inkscape:window-height="692"
     id="namedview53"
     showgrid="false"
     inkscape:zoom="1.3037333"
     inkscape:cx="306.55712"
     inkscape:cy="331.20363"
     inkscape:window-x="0"
     inkscape:window-y="24"
     inkscape:window-maximized="1"
     inkscape:current-layer="Layer_1" /><path
     style="fill:#1bff7a;fill-opacity:1"
     d="M470.26,51.26L114.955,173.522l108.228,21.587L470.258,51.26H470.26z"
     id="path4" /><path
     style="fill:#2aa634;fill-opacity:1"
     d="M114.955,173.522l108.228,21.587l71.829-41.819L114.955,173.522z"
     id="path6" /><path
     style="fill:#009940;fill-opacity:1"
     d="M223.183,195.109l16.765,127.578L470.258,51.26L223.183,195.109z"
     id="path8" /><path
     style="fill:#218429;fill-opacity:1"
     d="M223.183,195.109l16.765,127.578l102.937-121.314l-17.769-28.952l-35.202,29.386l5.1-48.519h-0.002  l-71.829,41.819V195.109z"
     id="path10" /><path
     style="fill:#FECD0D;"
     d="M470.26,51.26L262.05,225.069l-22.099,97.619L470.26,51.26z"
     id="path12" /><path
     style="fill:#2aa634;fill-opacity:1"
     d="M289.915,201.808l-27.865,23.261l-22.099,97.619l102.937-121.314l-17.769-28.952l-35.202,29.386  v-0.002L289.915,201.808z"
     id="path14" /><path
     style="fill:#1bff7a;fill-opacity:1"
     d="M399.433,293.524L470.26,51.26L262.05,225.069l137.385,68.455H399.433z"
     id="path16" /><path
     style="fill:#2aa634;fill-opacity:1"
     d="M289.758,201.808l-27.865,23.261l137.385,68.453l-74.314-121.1l-35.207,29.388V201.808z"
     id="path18" /><path
     style="fill:#FFFFFF;"
     d="M46.103,358.621l143.869-140.161l6.365,8.365L46.103,358.621z M214.836,456.721L214.836,456.721  l130.323-149.789l9.172,4.178L214.836,456.721z M106.123,442.021L106.123,442.021l121.75-109.042l-6.65-5.697L106.123,442.021z"
     id="path20" /><g
     id="g22" /><g
     id="g24" /><g
     id="g26" /><g
     id="g28" /><g
     id="g30" /><g
     id="g32" /><g
     id="g34" /><g
     id="g36" /><g
     id="g38" /><g
     id="g40" /><g
     id="g42" /><g
     id="g44" /><g
     id="g46" /><g
     id="g48" /><g
     id="g50" /></svg>